<region> lovel=1 hivel=5 amp_velcurve_5=1 sample=../samples/kicks/kd22boom/snare_off/opn/kd22boom_opn_001.wav
<region> lovel=6 hivel=10 amp_velcurve_10=1 sample=../samples/kicks/kd22boom/snare_off/opn/kd22boom_opn_002.wav
<region> lovel=11 hivel=15 amp_velcurve_15=1 sample=../samples/kicks/kd22boom/snare_off/opn/kd22boom_opn_003.wav
<region> lovel=16 hivel=20 amp_velcurve_20=1 sample=../samples/kicks/kd22boom/snare_off/opn/kd22boom_opn_004.wav
<region> lovel=21 hivel=25 amp_velcurve_25=1 sample=../samples/kicks/kd22boom/snare_off/opn/kd22boom_opn_005.wav
<region> lovel=26 hivel=31 amp_velcurve_31=1 sample=../samples/kicks/kd22boom/snare_off/opn/kd22boom_opn_006.wav
<region> lovel=32 hivel=37 amp_velcurve_37=1 sample=../samples/kicks/kd22boom/snare_off/opn/kd22boom_opn_007.wav
<region> lovel=38 hivel=43 amp_velcurve_43=1 sample=../samples/kicks/kd22boom/snare_off/opn/kd22boom_opn_008.wav
<region> lovel=44 hivel=49 amp_velcurve_49=1 sample=../samples/kicks/kd22boom/snare_off/opn/kd22boom_opn_009.wav
<region> lovel=50 hivel=55 amp_velcurve_55=1 sample=../samples/kicks/kd22boom/snare_off/opn/kd22boom_opn_010.wav
<region> lovel=56 hivel=61 amp_velcurve_61=1 sample=../samples/kicks/kd22boom/snare_off/opn/kd22boom_opn_011.wav
<region> lovel=62 hivel=67 amp_velcurve_67=1 sample=../samples/kicks/kd22boom/snare_off/opn/kd22boom_opn_012.wav
<region> lovel=68 hivel=73 amp_velcurve_73=1 sample=../samples/kicks/kd22boom/snare_off/opn/kd22boom_opn_013.wav
<region> lovel=74 hivel=79 amp_velcurve_79=1 sample=../samples/kicks/kd22boom/snare_off/opn/kd22boom_opn_014.wav
<region> lovel=80 hivel=85 amp_velcurve_85=1 sample=../samples/kicks/kd22boom/snare_off/opn/kd22boom_opn_015.wav
<region> lovel=86 hivel=91 amp_velcurve_91=1 sample=../samples/kicks/kd22boom/snare_off/opn/kd22boom_opn_016.wav
<region> lovel=92 hivel=97 amp_velcurve_97=1 sample=../samples/kicks/kd22boom/snare_off/opn/kd22boom_opn_017.wav
<region> lovel=98 hivel=103 amp_velcurve_103=1 sample=../samples/kicks/kd22boom/snare_off/opn/kd22boom_opn_018.wav
<region> lovel=104 hivel=109 amp_velcurve_109=1 sample=../samples/kicks/kd22boom/snare_off/opn/kd22boom_opn_019.wav
<region> lovel=110 hivel=115 amp_velcurve_115=1 sample=../samples/kicks/kd22boom/snare_off/opn/kd22boom_opn_020.wav
<region> lovel=116 hivel=121 amp_velcurve_121=1 sample=../samples/kicks/kd22boom/snare_off/opn/kd22boom_opn_021.wav
<region> lovel=122 hivel=127 amp_velcurve_127=1 sample=../samples/kicks/kd22boom/snare_off/opn/kd22boom_opn_022.wav
